<svg width="1360" height="502" viewBox="0 0 1360 502" fill="none" xmlns="http://www.w3.org/2000/svg">
<path d="M1.14062 499.898H1359.5V500.926H1.14062V499.898Z" fill="black" stroke="black"/>
<path d="M1.14062 376.161H1359.5V377.189H1.14062V376.161Z" fill="black" stroke="black"/>
<path d="M1.14062 250.395H1359.5V251.423H1.14062V250.395Z" fill="black" stroke="black"/>
<path d="M1.14062 126.658H1359.5V127.686H1.14062V126.658Z" fill="black" stroke="black"/>
<path d="M1.14062 0.89209H1359.5V1.92057H1.14062V0.89209Z" fill="black" stroke="black"/>
<path d="M1.14062 437.015H1359.5V438.044H1.14062V437.015Z" fill="black" stroke="black"/>
<path d="M1.14062 313.278H1359.5V314.306H1.14062V313.278Z" fill="black" stroke="black"/>
<path d="M1.14062 187.512H1359.5V188.541H1.14062V187.512Z" fill="black" stroke="black"/>
<path d="M1.14062 63.7749H1359.5V64.8034H1.14062V63.7749Z" fill="black" stroke="black"/>
<path d="M1360 496.884H0.640625V501.427H1360V496.884Z" fill="black"/>
<path d="M256.398 179.177L256.18 177.693L256.398 179.177ZM425.967 135.514L426.252 136.987L425.967 135.514ZM595.536 113.683L595.621 115.18L595.536 113.683ZM934.674 119.297L935.596 118.114L934.674 119.297ZM1104.24 380.651L1104.59 379.193L1104.24 380.651ZM86.8293 185.415C86.8018 186.915 86.8018 186.915 86.8018 186.915C86.8018 186.915 86.8018 186.915 86.8018 186.915C86.8019 186.915 86.8019 186.915 86.802 186.915C86.8021 186.915 86.8024 186.915 86.8026 186.915C86.8032 186.915 86.804 186.915 86.805 186.915C86.8071 186.915 86.8103 186.915 86.8145 186.915C86.8228 186.915 86.8352 186.915 86.8516 186.916C86.8845 186.916 86.9336 186.917 86.9985 186.918C87.1284 186.92 87.3218 186.924 87.5763 186.928C88.0853 186.936 88.8387 186.948 89.8175 186.962L89.8598 183.962C88.8833 183.948 88.1321 183.936 87.6252 183.928C87.3718 183.924 87.1795 183.921 87.0506 183.919C86.9862 183.917 86.9377 183.917 86.9053 183.916C86.8891 183.916 86.8769 183.916 86.8689 183.915C86.8648 183.915 86.8618 183.915 86.8598 183.915C86.8588 183.915 86.8581 183.915 86.8576 183.915C86.8574 183.915 86.8572 183.915 86.8571 183.915C86.857 183.915 86.857 183.915 86.857 183.915C86.8569 183.915 86.8569 183.915 86.8569 183.915C86.8569 183.915 86.8569 183.915 86.8293 185.415ZM95.8494 187.034C97.6505 187.053 99.6923 187.071 101.949 187.088L101.971 184.088C99.7172 184.072 97.6785 184.053 95.8802 184.035L95.8494 187.034ZM108.001 187.123C109.93 187.132 111.965 187.138 114.097 187.142L114.102 184.142C111.973 184.138 109.94 184.132 108.014 184.123L108.001 187.123ZM120.182 187.145C122.141 187.143 124.163 187.139 126.241 187.132L126.231 184.132C124.155 184.139 122.136 184.143 120.179 184.145L120.182 187.145ZM132.309 187.103C134.293 187.09 136.319 187.075 138.381 187.057L138.354 184.057C136.295 184.075 134.272 184.091 132.291 184.103L132.309 187.103ZM144.455 186.994C146.453 186.97 148.48 186.944 150.53 186.913L150.486 183.914C148.439 183.944 146.415 183.971 144.419 183.994L144.455 186.994ZM156.594 186.815C158.599 186.779 160.622 186.739 162.659 186.696L162.596 183.697C160.562 183.74 158.542 183.779 156.541 183.815L156.594 186.815ZM168.728 186.558C170.742 186.508 172.767 186.455 174.798 186.397L174.713 183.399C172.686 183.456 170.665 183.509 168.654 183.559L168.728 186.558ZM180.87 186.214C182.891 186.149 184.916 186.079 186.941 186.005L186.832 183.007C184.811 183.081 182.791 183.15 180.773 183.215L180.87 186.214ZM193.01 185.77C195.036 185.687 197.059 185.599 199.075 185.506L198.937 182.509C196.926 182.602 194.908 182.69 192.887 182.773L193.01 185.77ZM205.145 185.21C207.18 185.105 209.204 184.995 211.216 184.879L211.043 181.884C209.038 181.999 207.019 182.109 204.991 182.214L205.145 185.21ZM217.285 184.508C219.326 184.376 221.35 184.238 223.352 184.094L223.136 181.102C221.142 181.246 219.126 181.383 217.092 181.514L217.285 184.508ZM229.415 183.63C231.465 183.463 233.487 183.29 235.476 183.108L235.203 180.121C233.225 180.301 231.213 180.474 229.173 180.639L229.415 183.63ZM241.533 182.52C243.595 182.306 245.615 182.083 247.587 181.851L247.235 178.871C245.279 179.102 243.273 179.324 241.224 179.535L241.533 182.52ZM253.635 181.083C254.645 180.946 255.639 180.805 256.617 180.661L256.18 177.693C255.213 177.836 254.23 177.975 253.23 178.111L253.635 181.083ZM256.617 180.661C257.583 180.519 258.55 180.372 259.516 180.221L259.052 177.257C258.094 177.407 257.137 177.552 256.18 177.693L256.617 180.661ZM265.305 179.261C267.228 178.924 269.151 178.571 271.074 178.202L270.509 175.256C268.602 175.622 266.695 175.972 264.788 176.305L265.305 179.261ZM276.825 177.054C278.735 176.658 280.646 176.247 282.556 175.823L281.906 172.895C280.009 173.316 278.112 173.723 276.215 174.117L276.825 177.054ZM288.269 174.518C290.168 174.072 292.066 173.614 293.964 173.145L293.245 170.232C291.357 170.699 289.47 171.154 287.583 171.597L288.269 174.518ZM299.642 171.711C301.529 171.225 303.417 170.728 305.304 170.224L304.529 167.326C302.65 167.828 300.771 168.322 298.893 168.806L299.642 171.711ZM310.952 168.69C312.831 168.171 314.709 167.646 316.587 167.115L315.77 164.228C313.898 164.758 312.026 165.281 310.154 165.797L310.952 168.69ZM322.211 165.505C324.083 164.964 325.954 164.418 327.825 163.868L326.979 160.99C325.112 161.539 323.245 162.084 321.378 162.623L322.211 165.505ZM333.431 162.209C335.298 161.653 337.164 161.095 339.031 160.534L338.168 157.661C336.303 158.221 334.439 158.779 332.575 159.334L333.431 162.209ZM344.626 158.849C346.49 158.286 348.354 157.723 350.218 157.16L349.35 154.288C347.486 154.851 345.623 155.414 343.759 155.977L344.626 158.849ZM355.809 155.472C357.673 154.91 359.537 154.35 361.4 153.792L360.54 150.918C358.674 151.477 356.809 152.037 354.943 152.6L355.809 155.472ZM366.994 152.125C368.86 151.572 370.726 151.023 372.592 150.478L371.751 147.598C369.881 148.144 368.011 148.695 366.142 149.249L366.994 152.125ZM378.196 148.856C380.066 148.319 381.936 147.789 383.806 147.265L382.997 144.376C381.121 144.902 379.245 145.434 377.369 145.972L378.196 148.856ZM389.426 145.712C391.303 145.201 393.18 144.697 395.056 144.203L394.292 141.302C392.407 141.799 390.522 142.304 388.637 142.817L389.426 145.712ZM400.698 142.744C402.583 142.266 404.468 141.799 406.352 141.342L405.646 138.427C403.751 138.886 401.856 139.356 399.961 139.836L400.698 142.744ZM412.02 140.005C413.914 139.569 415.808 139.147 417.702 138.738L417.069 135.805C415.162 136.217 413.255 136.643 411.348 137.081L412.02 140.005ZM423.399 137.549C424.35 137.358 425.301 137.171 426.252 136.987L425.683 134.042C424.724 134.227 423.766 134.416 422.808 134.608L423.399 137.549ZM426.252 136.987C427.251 136.794 428.25 136.602 429.249 136.411L428.686 133.464C427.685 133.656 426.684 133.848 425.683 134.042L426.252 136.987ZM435.248 135.277C437.249 134.903 439.25 134.533 441.25 134.167L440.711 131.216C438.706 131.583 436.701 131.953 434.696 132.328L435.248 135.277ZM447.257 133.081C449.261 132.723 451.265 132.37 453.269 132.02L452.754 129.065C450.746 129.415 448.738 129.769 446.73 130.128L447.257 133.081ZM459.285 130.984C461.292 130.643 463.298 130.306 465.305 129.974L464.815 127.014C462.804 127.347 460.793 127.685 458.782 128.027L459.285 130.984ZM471.329 128.989C473.338 128.665 475.348 128.346 477.357 128.031L476.893 125.067C474.879 125.383 472.865 125.703 470.852 126.027L471.329 128.989ZM483.39 127.099C485.402 126.793 487.414 126.492 489.426 126.195L488.988 123.227C486.971 123.524 484.955 123.827 482.938 124.133L483.39 127.099ZM495.466 125.318C497.481 125.03 499.496 124.747 501.511 124.469L501.1 121.497C499.081 121.776 497.061 122.059 495.042 122.348L495.466 125.318ZM507.559 123.648C509.576 123.379 511.593 123.115 513.611 122.856L513.228 119.88C511.206 120.14 509.184 120.405 507.162 120.674L507.559 123.648ZM519.666 122.093C521.686 121.844 523.705 121.599 525.725 121.36L525.372 118.381C523.347 118.621 521.323 118.866 519.298 119.116L519.666 122.093ZM531.787 120.656C533.809 120.427 535.831 120.202 537.853 119.983L537.53 117.001C535.503 117.22 533.476 117.445 531.449 117.675L531.787 120.656ZM543.922 119.341C545.946 119.132 547.97 118.928 549.994 118.73L549.702 115.744C547.672 115.943 545.643 116.147 543.614 116.357L543.922 119.341ZM556.07 118.15C558.096 117.962 560.122 117.78 562.148 117.603L561.886 114.614C559.855 114.792 557.824 114.975 555.792 115.163L556.07 118.15ZM568.228 117.087C570.256 116.921 572.284 116.76 574.311 116.605L574.082 113.614C572.049 113.769 570.016 113.931 567.983 114.097L568.228 117.087ZM580.397 116.156C582.427 116.012 584.456 115.873 586.485 115.74L586.289 112.746C584.254 112.88 582.22 113.019 580.185 113.163L580.397 116.156ZM592.576 115.358C593.591 115.298 594.606 115.238 595.621 115.18L595.451 112.185C594.433 112.243 593.414 112.303 592.396 112.364L592.576 115.358ZM595.621 115.18C596.627 115.123 597.633 115.068 598.639 115.016L598.483 112.02C597.472 112.073 596.461 112.128 595.451 112.185L595.621 115.18ZM604.677 114.731C606.69 114.645 608.704 114.569 610.718 114.502L610.617 111.504C608.595 111.571 606.572 111.648 604.549 111.734L604.677 114.731ZM616.761 114.326C618.776 114.276 620.791 114.234 622.806 114.2L622.756 111.2C620.733 111.235 618.71 111.277 616.686 111.327L616.761 114.326ZM628.854 114.12C630.869 114.101 632.886 114.089 634.902 114.084L634.894 111.084C632.871 111.089 630.848 111.101 628.825 111.121L628.854 114.12ZM640.951 114.088C642.967 114.096 644.984 114.11 647.001 114.129L647.03 111.129C645.007 111.11 642.985 111.096 640.962 111.088L640.951 114.088ZM653.051 114.204C655.068 114.234 657.085 114.269 659.102 114.309L659.161 111.31C657.14 111.27 655.118 111.235 653.096 111.204L653.051 114.204ZM665.153 114.442C667.17 114.49 669.187 114.542 671.204 114.598L671.287 111.599C669.266 111.543 667.246 111.491 665.225 111.442L665.153 114.442ZM677.256 114.775C679.273 114.837 681.29 114.902 683.307 114.97L683.408 111.971C681.388 111.904 679.368 111.839 677.348 111.777L677.256 114.775ZM689.359 115.179C691.377 115.25 693.394 115.324 695.412 115.399L695.523 112.401C693.504 112.326 691.485 112.252 689.466 112.181L689.359 115.179ZM701.465 115.627C703.483 115.703 705.5 115.781 707.518 115.859L707.634 112.861C705.616 112.783 703.598 112.706 701.579 112.629L701.465 115.627ZM713.573 116.093C715.591 116.171 717.609 116.248 719.628 116.325L719.742 113.327C717.724 113.25 715.706 113.173 713.688 113.095L713.573 116.093ZM725.684 116.552C727.703 116.626 729.722 116.699 731.742 116.77L731.847 113.772C729.83 113.701 727.812 113.628 725.795 113.554L725.684 116.552ZM737.8 116.977C739.82 117.044 741.84 117.108 743.86 117.169L743.951 114.17C741.934 114.109 739.916 114.045 737.899 113.979L737.8 116.977ZM749.921 117.343C751.942 117.398 753.963 117.449 755.984 117.496L756.053 114.497C754.036 114.45 752.019 114.399 750.002 114.344L749.921 117.343ZM762.048 117.624C763.058 117.643 764.069 117.661 765.08 117.678L765.13 114.678C764.121 114.661 763.113 114.643 762.104 114.624L762.048 117.624ZM765.08 117.678C766.07 117.694 767.059 117.697 768.048 117.689L768.021 114.689C767.057 114.697 766.093 114.694 765.13 114.678L765.08 117.678ZM773.973 117.494C775.942 117.384 777.909 117.231 779.875 117.04L779.585 114.054C777.657 114.241 775.73 114.391 773.805 114.499L773.973 117.494ZM785.749 116.361C787.697 116.102 789.643 115.81 791.589 115.493L791.105 112.532C789.186 112.845 787.269 113.132 785.353 113.387L785.749 116.361ZM797.394 114.469C799.32 114.106 801.245 113.722 803.168 113.322L802.558 110.385C800.65 110.782 798.744 111.162 796.839 111.521L797.394 114.469ZM808.916 112.084C810.826 111.659 812.735 111.224 814.642 110.783L813.966 107.86C812.064 108.3 810.164 108.733 808.265 109.155L808.916 112.084ZM820.353 109.448C822.256 109 824.155 108.552 826.056 108.107L825.372 105.186C823.47 105.632 821.566 106.081 819.666 106.528L820.353 109.448ZM831.756 106.789C833.658 106.356 835.559 105.932 837.46 105.522L836.826 102.589C834.913 103.003 833.001 103.429 831.09 103.864L831.756 106.789ZM843.172 104.333C845.082 103.953 846.991 103.591 848.898 103.254L848.375 100.3C846.444 100.642 844.515 101.007 842.586 101.391L843.172 104.333ZM854.64 102.314C856.561 102.027 858.48 101.769 860.398 101.545L860.051 98.5655C858.098 98.7931 856.147 99.0553 854.196 99.3468L854.64 102.314ZM866.172 100.981C868.102 100.831 870.03 100.72 871.956 100.654L871.854 97.6562C869.881 97.7233 867.909 97.8364 865.939 97.9902L866.172 100.981ZM877.74 100.598C879.664 100.628 881.587 100.708 883.509 100.844L883.72 97.8513C881.741 97.7118 879.763 97.6295 877.786 97.5988L877.74 100.598ZM889.248 101.418C891.144 101.665 893.04 101.972 894.934 102.342L895.51 99.3977C893.551 99.015 891.593 98.6985 889.636 98.4431L889.248 101.418ZM900.546 103.631C902.383 104.117 904.221 104.668 906.058 105.289L907.018 102.447C905.117 101.804 903.215 101.234 901.314 100.731L900.546 103.631ZM911.447 107.313C913.195 108.037 914.943 108.827 916.691 109.689L918.018 106.998C916.21 106.108 914.403 105.29 912.595 104.541L911.447 107.313ZM921.775 112.398C923.411 113.337 925.048 114.341 926.686 115.414L928.331 112.905C926.644 111.799 924.956 110.764 923.267 109.796L921.775 112.398ZM931.42 118.711C932.197 119.284 932.974 119.873 933.751 120.479L935.596 118.114C934.798 117.491 934 116.886 933.202 116.297L931.42 118.711ZM933.751 120.479C934.498 121.062 935.245 121.673 935.994 122.314L937.944 120.034C937.163 119.365 936.38 118.725 935.596 118.114L933.751 120.479ZM940.377 126.372C941.755 127.743 943.135 129.205 944.518 130.752L946.755 128.753C945.337 127.166 943.917 125.662 942.494 124.246L940.377 126.372ZM948.395 135.304C949.626 136.814 950.857 138.388 952.09 140.022L954.485 138.215C953.231 136.554 951.977 134.951 950.721 133.409L948.395 135.304ZM955.662 144.914C956.803 146.527 957.944 148.187 959.087 149.892L961.579 148.222C960.424 146.498 959.267 144.816 958.111 143.181L955.662 144.914ZM962.38 154.926C963.457 156.611 964.534 158.332 965.612 160.088L968.169 158.519C967.082 156.748 965.995 155.011 964.907 153.31L962.38 154.926ZM968.719 165.242C969.737 166.961 970.755 168.708 971.774 170.482L974.376 168.988C973.351 167.203 972.325 165.444 971.3 163.713L968.719 165.242ZM974.762 175.758C975.736 177.501 976.71 179.267 977.685 181.053L980.318 179.617C979.339 177.822 978.36 176.047 977.381 174.295L974.762 175.758ZM980.575 186.41C981.516 188.173 982.458 189.953 983.399 191.749L986.056 190.356C985.111 188.554 984.167 186.767 983.221 184.997L980.575 186.41ZM986.211 197.158C987.129 198.937 988.046 200.729 988.963 202.533L991.638 201.174C990.718 199.365 989.798 197.567 988.878 195.783L986.211 197.158ZM991.712 207.972C992.613 209.766 993.514 211.569 994.415 213.382L997.101 212.046C996.199 210.23 995.296 208.423 994.393 206.626L991.712 207.972ZM997.116 218.838C998.006 220.643 998.896 222.456 999.786 224.274L1002.48 222.955C1001.59 221.135 1000.7 219.32 999.807 217.512L997.116 218.838ZM1002.46 229.742C1003.34 231.556 1004.22 233.375 1005.11 235.197L1007.81 233.888C1006.92 232.065 1006.04 230.245 1005.15 228.428L1002.46 229.742ZM1007.76 240.668C1008.64 242.49 1009.52 244.312 1010.4 246.135L1013.1 244.83C1012.22 243.007 1011.34 241.183 1010.46 239.362L1007.76 240.668ZM1013.04 251.605C1013.93 253.431 1014.81 255.256 1015.69 257.078L1018.39 255.769C1017.51 253.948 1016.63 252.124 1015.75 250.299L1013.04 251.605ZM1018.35 262.54C1019.24 264.368 1020.12 266.193 1021.01 268.012L1023.71 266.694C1022.82 264.877 1021.93 263.054 1021.04 261.227L1018.35 262.54ZM1023.69 273.46C1024.59 275.289 1025.49 277.111 1026.39 278.925L1029.07 277.592C1028.17 275.781 1027.28 273.962 1026.38 272.135L1023.69 273.46ZM1029.09 284.354C1030.01 286.18 1030.92 287.997 1031.84 289.802L1034.51 288.445C1033.6 286.645 1032.69 284.832 1031.77 283.01L1029.09 284.354ZM1034.59 295.207C1035.53 297.027 1036.47 298.834 1037.4 300.626L1040.06 299.238C1039.13 297.452 1038.2 295.65 1037.26 293.836L1034.59 295.207ZM1040.23 306.001C1041.19 307.81 1042.15 309.602 1043.12 311.374L1045.75 309.943C1044.8 308.179 1043.84 306.395 1042.88 304.593L1040.23 306.001ZM1046.05 316.714C1047.04 318.503 1048.03 320.271 1049.03 322.014L1051.64 320.528C1050.65 318.795 1049.66 317.038 1048.67 315.257L1046.05 316.714ZM1052.09 327.309C1053.13 329.068 1054.16 330.799 1055.2 332.5L1057.76 330.941C1056.73 329.253 1055.71 327.535 1054.68 325.789L1052.09 327.309ZM1058.44 337.731C1059.54 339.473 1060.64 341.178 1061.75 342.845L1064.25 341.189C1063.16 339.541 1062.07 337.853 1060.98 336.127L1058.44 337.731ZM1065.17 347.89C1066.37 349.605 1067.57 351.273 1068.77 352.888L1071.18 351.1C1070 349.51 1068.82 347.867 1067.63 346.173L1065.17 347.89ZM1072.49 357.73C1073.79 359.358 1075.09 360.921 1076.4 362.416L1078.66 360.444C1077.39 358.985 1076.11 357.455 1074.84 355.858L1072.49 357.73ZM1080.6 366.981C1082.08 368.508 1083.57 369.939 1085.07 371.27L1087.06 369.03C1085.63 367.751 1084.19 366.368 1082.74 364.888L1080.6 366.981ZM1089.88 375.191C1091.62 376.472 1093.37 377.61 1095.13 378.59L1096.59 375.971C1094.96 375.058 1093.31 373.991 1091.66 372.775L1089.88 375.191ZM1100.87 381.212C1101.88 381.566 1102.88 381.866 1103.89 382.109L1104.59 379.193C1103.69 378.975 1102.78 378.704 1101.87 378.383L1100.87 381.212ZM1103.89 382.109C1104.93 382.359 1105.98 382.543 1107.05 382.663L1107.38 379.682C1106.44 379.575 1105.51 379.413 1104.59 379.193L1103.89 382.109ZM1113.42 382.67C1115.44 382.462 1117.51 382.063 1119.61 381.491L1118.82 378.597C1116.86 379.131 1114.96 379.497 1113.11 379.686L1113.42 382.67ZM1125.51 379.466C1127.37 378.707 1129.24 377.829 1131.14 376.842L1129.75 374.181C1127.93 375.13 1126.14 375.968 1124.38 376.689L1125.51 379.466ZM1136.53 373.778C1138.24 372.723 1139.97 371.587 1141.72 370.375L1140 367.912C1138.3 369.094 1136.62 370.199 1134.96 371.222L1136.53 373.778ZM1146.63 366.788C1148.22 365.574 1149.82 364.303 1151.42 362.979L1149.52 360.665C1147.94 361.967 1146.37 363.214 1144.81 364.404L1146.63 366.788ZM1156.11 358.98C1157.61 357.661 1159.12 356.3 1160.63 354.899L1158.58 352.701C1157.09 354.084 1155.61 355.427 1154.13 356.728L1156.11 358.98ZM1165.05 350.69C1166.5 349.279 1167.95 347.835 1169.4 346.361L1167.27 344.255C1165.83 345.715 1164.39 347.144 1162.96 348.54L1165.05 350.69ZM1173.62 342.001C1175.01 340.535 1176.41 339.043 1177.8 337.529L1175.59 335.499C1174.21 337.001 1172.83 338.481 1171.45 339.935L1173.62 342.001ZM1181.88 333.019C1183.23 331.512 1184.57 329.986 1185.91 328.443L1183.64 326.476C1182.31 328.009 1180.98 329.525 1179.64 331.022L1181.88 333.019ZM1189.88 323.814C1191.19 322.272 1192.49 320.716 1193.79 319.149L1191.48 317.236C1190.18 318.795 1188.89 320.342 1187.59 321.875L1189.88 323.814ZM1197.65 314.43C1198.93 312.858 1200.19 311.276 1201.46 309.687L1199.11 307.82C1197.85 309.402 1196.59 310.977 1195.32 312.541L1197.65 314.43ZM1205.22 304.901C1206.47 303.3 1207.71 301.694 1208.95 300.085L1206.57 298.26C1205.34 299.863 1204.1 301.462 1202.86 303.056L1205.22 304.901ZM1212.63 295.239C1213.85 293.615 1215.07 291.99 1216.28 290.366L1213.87 288.578C1212.67 290.197 1211.45 291.816 1210.24 293.433L1212.63 295.239ZM1219.89 285.463C1221.09 283.821 1222.28 282.181 1223.45 280.547L1221.02 278.793C1219.85 280.422 1218.66 282.056 1217.46 283.692L1219.89 285.463ZM1227.01 275.586C1228.18 273.931 1229.35 272.283 1230.5 270.645L1228.04 268.921C1226.89 270.554 1225.73 272.197 1224.56 273.848L1227.01 275.586ZM1234 265.625C1235.16 263.944 1236.31 262.276 1237.44 260.625L1234.96 258.93C1233.84 260.577 1232.69 262.24 1231.53 263.917L1234 265.625ZM1240.86 255.599C1242.02 253.887 1243.15 252.197 1244.27 250.53L1241.77 248.863C1240.66 250.525 1239.53 252.211 1238.37 253.918L1240.86 255.599ZM1247.61 245.498C1248.76 243.765 1249.88 242.063 1250.96 240.397L1248.45 238.756C1247.37 240.418 1246.25 242.115 1245.11 243.844L1247.61 245.498ZM1254.29 235.274C1255.42 233.523 1256.52 231.821 1257.57 230.172L1255.04 228.556C1253.99 230.201 1252.9 231.9 1251.77 233.645L1254.29 235.274ZM1260.81 225.082C1261.94 223.279 1263.02 221.558 1264.04 219.927L1261.5 218.338C1260.48 219.965 1259.4 221.682 1258.27 223.48L1260.81 225.082ZM1267.25 214.758C1268.44 212.831 1269.5 211.086 1270.44 209.547L1267.88 207.989C1266.94 209.523 1265.88 211.262 1264.7 213.184L1267.25 214.758ZM1273.59 204.321C1274.09 203.492 1274.46 202.854 1274.72 202.423C1274.85 202.208 1274.94 202.044 1275.01 201.934C1275.04 201.879 1275.06 201.837 1275.08 201.809C1275.09 201.795 1275.1 201.784 1275.1 201.777C1275.1 201.774 1275.1 201.771 1275.1 201.769C1275.1 201.768 1275.11 201.768 1275.11 201.767C1275.11 201.767 1275.11 201.767 1275.11 201.766C1275.11 201.766 1275.11 201.766 1275.11 201.766C1275.11 201.766 1275.11 201.766 1275.11 201.766C1275.11 201.766 1275.11 201.766 1273.81 201.009C1272.52 200.251 1272.52 200.251 1272.52 200.251C1272.52 200.251 1272.52 200.251 1272.52 200.251C1272.52 200.251 1272.52 200.252 1272.52 200.252C1272.52 200.252 1272.52 200.252 1272.52 200.252C1272.52 200.252 1272.52 200.253 1272.52 200.254C1272.51 200.255 1272.51 200.258 1272.51 200.261C1272.51 200.268 1272.5 200.278 1272.49 200.292C1272.48 200.319 1272.45 200.359 1272.42 200.413C1272.36 200.522 1272.26 200.684 1272.14 200.897C1271.88 201.324 1271.51 201.958 1271.02 202.782L1273.59 204.321Z" fill="black"/>
<path d="M86.8293 162.336C86.8293 162.336 199.875 151.42 256.398 142.376C312.921 133.331 369.444 117.945 425.967 108.069C482.49 98.1928 539.013 86.6533 595.536 83.1186C652.059 79.584 708.582 86.0295 765.105 86.8612C821.628 87.6929 878.151 43.614 934.674 88.1087C991.197 132.603 1047.72 341.666 1104.24 353.829C1160.77 365.993 1273.81 161.088 1273.81 161.088" stroke="black" stroke-width="3"/>
</svg>
